<svg xmlns="http://www.w3.org/2000/svg" viewBox="0 0 260 170" width="260" height="170" role="img" aria-label="Rockfield Bank">
  <g transform="translate(10 10)" fill="none" stroke="#11213a" stroke-linecap="round" stroke-linejoin="round">
    <g stroke-width="7">
      <path d="M14 141 H226" />
      <path d="M27 141 L38 96 L55 62 L76 36 L98 31 L114 47 L126 70 L134 96 L139 118 L142 124" />
      <path d="M126 79 L168 49 L210 79" />
      <path d="M126 79 H210 V88 H126 Z" />
      <path d="M124 116 H212 V124 H124 Z" />
      <path d="M120 124 H216 L226 141 H110 Z" />
    </g>
    <g stroke-width="4.34">
      <path d="M79 39 L64 71 L75 100 L62 124" />
      <path d="M101 61 L89 86 L99 110" />
      <circle cx="168" cy="70" r="4" />
      <path d="M137 88 V116" />
      <path d="M148 88 V116" />
      <path d="M159 88 V116" />
      <path d="M170 88 V116" />
      <path d="M181 88 V116" />
      <path d="M192 88 V116" />
    </g>
  </g>
</svg>